<?xml version="1.0" encoding="utf-8"?>
<!-- Generator: Adobe Illustrator 19.0.1, SVG Export Plug-In . SVG Version: 6.00 Build 0)  -->
<svg version="1.1" id="Layer_1" xmlns="http://www.w3.org/2000/svg" xmlns:xlink="http://www.w3.org/1999/xlink" x="0px" y="0px"
	 viewBox="0 0 106 76" style="enable-background:new 0 0 106 76;" xml:space="preserve">
<style type="text/css">
	.st0{fill:#FFFFFF;stroke:#999999;stroke-width:3;stroke-miterlimit:10;}
	.st1{fill:#F90B0B;stroke:#B3B3B3;stroke-width:3;stroke-miterlimit:10;}
	.st2{fill:#FC0808;stroke:#B3B3B3;stroke-width:3;stroke-miterlimit:10;}
</style>
<g>
	<path class="st0" d="M103.9,8.9c0,3.8-2.8,6.9-6.5,7.3h-17l-0.1,0.1L66.7,30.9h11.6c4,0,7.2,3.3,7.2,7.3s-3.2,7.3-7.2,7.3H53
		l-4.4,4.7l-23,24.5H4l27.4-29.3L45,30.9l5.7-6.2l7.9-8.5L72.4,1.6h2.8l0,0h21.5C100.7,1.6,103.9,4.9,103.9,8.9z"/>
	<path class="st1" d="M99.7,38.2c0,2.6-0.5,5-1.2,7.3c-2.3,6.5-7.4,11.6-14,13.7L71.1,45.5h7.2c4,0,7.2-3.3,7.2-7.3
		s-3.2-7.3-7.2-7.3H56.8L42.4,16.2h35.8c9.3,0,17.3,6.2,20.3,14.6C99.3,33.1,99.7,35.6,99.7,38.2z"/>
	<polygon class="st2" points="90.8,74.7 71.6,74.7 44,45.5 63.3,45.5 81.3,64.5 	"/>
</g>
</svg>
