<?xml version="1.0" encoding="utf-8"?>
<!-- Generator: Adobe Illustrator 19.0.1, SVG Export Plug-In . SVG Version: 6.00 Build 0)  -->
<svg version="1.1" id="Layer_1" xmlns="http://www.w3.org/2000/svg" xmlns:xlink="http://www.w3.org/1999/xlink" x="0px" y="0px"
	 viewBox="0 0 200 200" style="enable-background:new 0 0 200 200;" xml:space="preserve">
<style type="text/css">
	.st0{fill:#ED1C24;stroke:#B3B3B3;stroke-width:3;stroke-miterlimit:10;}
	.st1{fill:#FFFFFF;stroke:#B3B3B3;stroke-width:3;stroke-miterlimit:10;}
	.st2{fill:none;stroke:#B3B3B3;stroke-width:2;stroke-miterlimit:10;}
	.st3{fill:#FFFFFF;stroke:#999999;stroke-width:3;stroke-miterlimit:10;}
</style>
<g>
	<g>
		<ellipse class="st0" cx="100.2" cy="98.3" rx="97.6" ry="91.5"/>
		<ellipse class="st1" cx="100.7" cy="98.3" rx="88.9" ry="83.3"/>
		<path class="st2" d="M74.6,88.4"/>
	</g>
	<g>
		<path class="st3" d="M151.8,66c0,4.2-3.2,7.7-7.4,8.1h-19.2l-0.1,0.1l-15.4,16.1h13.1c4.5,0,8.1,3.6,8.1,8.1
			c0,4.5-3.6,8.1-8.1,8.1H94.3l-5,5.2l-25.9,27.1H39l30.9-32.4l15.5-16.2l6.5-6.8l9-9.4l15.5-16.2h3.1l0,0h24.3
			C148.2,57.9,151.8,61.5,151.8,66z"/>
		<path class="st0" d="M147.2,98.3c0,2.8-0.5,5.6-1.4,8.1c-2.6,7.2-8.5,12.9-15.8,15.1l-15.1-15.1h8.1c4.5,0,8.1-3.6,8.1-8.1
			c0-4.5-3.6-8.1-8.1-8.1H98.6L82.4,74.1h40.4c10.6,0,19.6,6.8,22.9,16.2C146.7,92.8,147.2,95.5,147.2,98.3z"/>
		<polygon class="st0" points="137,138.8 115.3,138.8 84.3,106.4 106,106.4 126.3,127.5 		"/>
	</g>
</g>
</svg>
