<?xml version="1.0" encoding="utf-8"?>
<!-- Generator: Adobe Illustrator 19.0.1, SVG Export Plug-In . SVG Version: 6.00 Build 0)  -->
<svg version="1.1" id="Layer_1" xmlns="http://www.w3.org/2000/svg" xmlns:xlink="http://www.w3.org/1999/xlink" x="0px" y="0px"
	 viewBox="0 0 960 560" style="enable-background:new 0 0 960 560;" xml:space="preserve">
<style type="text/css">
	.st0{fill:#FFFFFF;stroke:#999999;stroke-width:3;stroke-miterlimit:10;}
	.st1{fill:#F90B0B;stroke:#B3B3B3;stroke-width:3;stroke-miterlimit:10;}
	.st2{fill:#FC0808;stroke:#B3B3B3;stroke-width:3;stroke-miterlimit:10;}
</style>
<g>
	<path class="st0" d="M108.2,10.2c0,4-3,7.2-6.9,7.6h-18l-0.1,0.1L68.7,33H81c4.2,0,7.6,3.4,7.6,7.6s-3.4,7.6-7.6,7.6H54.2l-4.7,4.9
		L25.1,78.6H2.2l29.1-30.4L45.7,33l6.1-6.4l8.4-8.8L74.8,2.6h3l0,0h22.8C104.8,2.6,108.2,6,108.2,10.2z"/>
	<path class="st1" d="M103.8,40.6c0,2.7-0.5,5.2-1.3,7.6c-2.4,6.8-7.9,12.1-14.9,14.2L73.4,48.2H81c4.2,0,7.6-3.4,7.6-7.6
		S85.2,33,81,33H58.2L43,17.8h38c9.9,0,18.4,6.4,21.5,15.2C103.3,35.3,103.8,37.9,103.8,40.6z"/>
	<polygon class="st2" points="94.3,78.6 73.9,78.6 44.7,48.2 65.1,48.2 84.2,68 	"/>
</g>
</svg>
